# xmcd
#
# Track frame offsets: 
#        150
#        10693
#        43063
#        55728
#        67168
#        78043
#        89073
#        98333
#        110723
#        119335
#        149083
#        174820
#        211868
#        261893
#        295973
#        310003
#
# Disc length: 4630 seconds
#
# Revision: 3
# Processed by: cddbd v1.5.2PL0 Copyright (c) Steve Scherf et al.
# Submitted via: ExactAudioCopy v0.99pb5
#
DISCID=de121410
DTITLE=Messiaen, Olivier - Piano Works - Volume 7 (Peter Hill - Brilli
DTITLE=ant Classics, 7cd)
DYEAR=1985
DGENRE=Classical
TTITLE0=Pièce pour le Tombeau de Paul Dukas (1935)
TTITLE1=Fantaisie burlesque (1932)
TTITLE2=Rondeau (1943)
TTITLE3=Petites esquisses d'oiseaux (1985) - I. Le Rouge-gorge
TTITLE4=Petites esquisses d'oiseaux - II. Le Merle soir
TTITLE5=Petites esquisses d'oiseaux - III. Le Rouge-gorge (2)
TTITLE6=Petites esquisses d'oiseaux - IV. La Grive muicienne
TTITLE7=Petites esquisses d'oiseaux - V. Le Rouge gorge (3)
TTITLE8=Petites esquisses d'oiseaux - VI. L'Alouette des champs
TTITLE9=Visions de l'Amen (1943) - I. Amen de la Création  [Peter Hill
TTITLE9=and Benjamin Frith, piano]
TTITLE10=Visions de l'Amen - II. Amen des étoiles, de la planète à l'a
TTITLE10=nneau
TTITLE11=Visions de l'Amen - III. Amen de l'Agonie de Jésus
TTITLE12=Visions de l'Amen - IV. Amen du Désir
TTITLE13=Visions de l'Amen - V. Amen des Anges, des Saints, du chant d
TTITLE13=es oiseaux
TTITLE14=Visions de l'Amen - VI. Amen du Jugement
TTITLE15=Visions de l'Amen - VII. Amen de la Consommation
EXTD=YEAR: 1985
EXTT0=
EXTT1=
EXTT2=
EXTT3=
EXTT4=
EXTT5=
EXTT6=
EXTT7=
EXTT8=
EXTT9=
EXTT10=
EXTT11=
EXTT12=
EXTT13=
EXTT14=
EXTT15=
PLAYORDER=
